<?xml version="1.0" encoding="utf-8"?>
<!-- Generator: Adobe Illustrator 19.2.1, SVG Export Plug-In . SVG Version: 6.00 Build 0)  -->
<svg version="1.1" id="layer" xmlns="http://www.w3.org/2000/svg" xmlns:xlink="http://www.w3.org/1999/xlink" x="0px" y="0px"
	 viewBox="0 0 652 652" style="enable-background:new 0 0 652 652;" xml:space="preserve">
<style type="text/css">
	.st0{fill:#52c2f5;}
	.st1{fill:#FFFFFF;}
</style>
<polygon class="st0" points="440.1,282.1 440.1,303.5 471.4,303.5 471.4,326.9 440.1,326.9 440.1,364.9 412.8,364.9 412.8,258.5 
	478.4,258.5 478.4,282.1 "/>
<rect x="490.5" y="258.5" class="st0" width="27.2" height="106.4"/>
<g>
	<path d="M94.4,298.7v32.6c0,20.4-13.5,33.3-35.1,33.3H20.8v-99.3h38.6C81,265.4,94.4,278.3,94.4,298.7 M68.9,300.4
		c0-8.7-3.4-13.1-9.5-13.1H46.2v55.3h13.2c6.1,0,9.5-4.4,9.5-13.1V300.4z"/>
	<path d="M118.7,282.1c-7.9,0-13.1-4-13.1-12.5c0-9.1,5.1-12.9,13.1-12.9c7.8,0,13.2,3.8,13.2,12.9
		C131.9,278.2,126.5,282.1,118.7,282.1 M131.1,364.7h-24.4v-73.8h24.4V364.7z"/>
	<path d="M227.4,282.1c-7.9,0-13.1-4-13.1-12.5c0-9.1,5.1-12.9,13.1-12.9c7.8,0,13.2,3.8,13.2,12.9
		C240.6,278.2,235.2,282.1,227.4,282.1 M239.8,364.7h-24.4v-73.8h24.4V364.7z"/>
	<path d="M297.8,362.9c-4.5,2.1-11.1,3.1-16.2,3.1c-19.4,0-25.4-8.2-25.4-27.4v-28.7h-7.7v-19h9.1l3.5-14h19.6v14h16.5v19h-16.5V337
		c0,6.2,1.7,8.7,6.4,8.7c3,0,5-0.4,7.2-1L297.8,362.9z"/>
	<path d="M366.3,317v47.7h-21l-1.1-6.7c-3.3,4.7-12.3,8.1-20.2,8.1c-12.3,0-21.7-7-21.7-21.1c0-14.9,9.4-22,25.1-22
		c4.3,0,9.6,0.7,14.3,1.7v-6c0-5-3.8-8.7-10.2-8.7c-7.2,0-13.1,1.7-17.9,3.8l-7-16.6c7.1-4.5,17.2-7.8,28.9-7.8
		C354.6,289.5,366.3,296.7,366.3,317 M341.8,341.6v-2.3c-3-0.9-6-1.3-8.8-1.3c-3.5,0-6,1.7-6,5s2,4.8,5,4.8
		C336.1,347.8,339.7,345.3,341.8,341.6"/>
	<rect x="379" y="258.3" width="24.4" height="106.4"/>
	<path class="st0" d="M209.6,283.6h-70v-18c0-4.9,4-8.9,8.9-8.9h52.3c4.9,0,8.9,4,8.9,8.9V283.6z"/>
	<path class="st1" d="M160.8,280.6c-0.5,0-0.9-0.1-1.4-0.1h-1.3h-1.3c-0.4,0-0.8,0-1.3,0.1c-0.3-1-0.6-2-1-3c-0.3-1-0.7-2-1.1-3
		c-0.6,0-1.3,0-1.9,0c-0.6,0-1.3,0-1.9,0c-0.5,0-1,0-1.5,0c-0.5,0-1,0-1.5,0c-0.4,1-0.8,2-1.1,3c-0.3,1-0.6,2-0.9,3
		c-0.2,0-0.5-0.1-0.7-0.1h-0.7h-0.7c-0.2,0-0.5,0-0.8,0.1c0.2-0.5,0.6-1.2,1-2.1c0.4-0.9,0.8-1.9,1.3-3.1c0.5-1.1,1-2.4,1.5-3.7
		c0.5-1.3,1.1-2.7,1.6-4c0.5-1.3,1.1-2.7,1.6-4c0.5-1.3,1-2.5,1.4-3.7c0.2,0,0.4,0.1,0.6,0.1c0.2,0,0.4,0,0.6,0c0.2,0,0.4,0,0.6,0
		c0.2,0,0.4-0.1,0.6-0.1c0.6,1.7,1.3,3.5,2,5.4c0.7,1.9,1.5,3.8,2.2,5.7c0.7,1.9,1.4,3.6,2.1,5.3
		C159.6,278.1,160.2,279.5,160.8,280.6 M150.3,265.8c-0.5,1.2-1,2.4-1.5,3.5c-0.5,1.2-0.9,2.3-1.3,3.6h5.4c-0.4-1.2-0.9-2.4-1.3-3.6
		C151.2,268.2,150.7,267,150.3,265.8"/>
	<path class="st1" d="M163.8,264.1c0-1.3-0.1-2.6-0.2-3.8c0.3,0,0.7,0.1,1.1,0.1c0.4,0,0.8,0,1.3,0s0.9,0,1.3,0
		c0.4,0,0.8-0.1,1.1-0.1c-0.1,1.3-0.1,2.6-0.2,3.8c0,1.3-0.1,2.7-0.1,4.4v4c0,1.1,0,2.2,0,3.3c0,1,0,2,0,2.7c1.1,0,2.3,0,3.4-0.1
		c1.1-0.1,2.3-0.2,3.4-0.3c0,0.2-0.1,0.4-0.1,0.6c0,0.2,0,0.4,0,0.7c0,0.3,0,0.6,0,0.7c0,0.2,0.1,0.3,0.1,0.4c-0.5,0-1.2,0-2,0
		c-0.8,0-1.9,0-3.2,0H167h-1.8c-0.4,0-0.8,0-1,0c-0.2,0-0.4,0-0.6,0c0.1-1.2,0.1-2.5,0.2-3.8c0-1.3,0.1-2.7,0.1-4.4v-4
		C163.8,266.8,163.8,265.3,163.8,264.1"/>
	<path class="st1" d="M179.5,263.5c0-0.5,0-0.8-0.1-1c-0.3,0-0.7,0-1.1,0c-0.4,0-0.9,0-1.4,0.1c-0.5,0-1,0.1-1.5,0.1
		c-0.5,0-1,0.1-1.4,0.2c0-0.2,0.1-0.4,0.1-0.7c0-0.2,0-0.4,0-0.7s0-0.4,0-0.7c0-0.2-0.1-0.4-0.1-0.7c0.7,0,1.3,0,1.8,0.1
		c0.5,0,1.1,0,1.7,0c0.6,0,1.2,0,1.8,0c0.7,0,1.5,0,2.4,0s1.7,0,2.4,0c0.7,0,1.3,0,1.8,0c0.6,0,1.1,0,1.6,0c0.5,0,1.1,0,1.7-0.1
		c0,0.2-0.1,0.4-0.1,0.7c0,0.2,0,0.4,0,0.7s0,0.4,0,0.7c0,0.2,0.1,0.4,0.1,0.7c-0.4-0.1-0.8-0.1-1.3-0.2c-0.5,0-1-0.1-1.5-0.1
		c-0.5,0-0.9-0.1-1.4-0.1c-0.4,0-0.8,0-1.1,0c0,0.1,0,0.2,0,0.4c0,0.2,0,0.4,0,0.6v1.6v7.4c0,1.6,0,3.1,0.1,4.4
		c0,1.3,0.1,2.5,0.2,3.8c-0.3,0-0.7-0.1-1.1-0.1h-1.3h-1.3c-0.4,0-0.8,0-1.1,0.1c0.1-1.2,0.1-2.5,0.2-3.8c0-1.3,0.1-2.7,0.1-4.4V265
		C179.5,264.5,179.5,263.9,179.5,263.5"/>
	<path class="st1" d="M207.1,280.6c-0.5,0-0.9-0.1-1.4-0.1h-1.3h-1.3c-0.4,0-0.8,0-1.3,0.1c-0.3-1-0.6-2-1-3c-0.3-1-0.7-2-1.1-3
		c-0.6,0-1.3,0-1.9,0c-0.6,0-1.3,0-1.9,0c-0.5,0-1,0-1.5,0c-0.5,0-1,0-1.5,0c-0.4,1-0.8,2-1.1,3c-0.3,1-0.6,2-0.9,3
		c-0.2,0-0.5-0.1-0.7-0.1h-0.7h-0.7c-0.2,0-0.5,0-0.8,0.1c0.2-0.5,0.6-1.2,1-2.1c0.4-0.9,0.8-1.9,1.3-3.1c0.5-1.1,1-2.4,1.5-3.7
		c0.5-1.3,1.1-2.7,1.6-4c0.5-1.3,1.1-2.7,1.6-4c0.5-1.3,1-2.5,1.4-3.7c0.2,0,0.4,0.1,0.6,0.1c0.2,0,0.4,0,0.6,0c0.2,0,0.4,0,0.6,0
		c0.2,0,0.4-0.1,0.6-0.1c0.6,1.7,1.3,3.5,2,5.4c0.7,1.9,1.5,3.8,2.2,5.7c0.7,1.9,1.4,3.6,2.1,5.3
		C205.9,278.1,206.5,279.5,207.1,280.6 M196.6,265.8c-0.5,1.2-1,2.4-1.5,3.5c-0.5,1.2-0.9,2.3-1.3,3.6h5.4c-0.4-1.2-0.9-2.4-1.3-3.6
		C197.5,268.2,197,267,196.6,265.8"/>
	<rect x="570.5" y="352.5" class="st0" width="5.5" height="12.4"/>
	<polygon class="st0" points="589.9,364.9 620.7,364.9 590.7,309.6 619.5,258.5 588.5,258.5 573.2,290.6 558.7,258.5 527.5,258.5 
		555.9,311.1 526.7,364.9 556.7,364.9 556.7,346.4 551.2,346.4 573.3,321.6 595.4,346.4 589.9,346.4 	"/>
	<path d="M188.5,344.7l-17.6-1.1c-3.3-0.3-4.7-2.1-4.7-4.3c0-1,0.4-2,1.1-3c1.6,0.1,3.4,0.3,5.1,0.3c15.9,0,29.8-6.4,29.8-22.8
		c0-6.5-1.6-11.5-4.7-15.3l12-13.3h-19.4l-3,6.4c-4.3-1.3-9.1-2-14.8-2c-18.9,0-29.8,7.4-29.8,24.4c0,8.9,4,14.8,10.1,18.3
		c-3.5,2.4-6.2,6.7-6.2,10.6c0,3.5,1.1,7.1,4.3,9.4c-6.5,4.8-10.2,9.5-10.2,18c0,9.5,5.8,17.2,24.7,17.2h13.9
		c19,0,28.5-7.5,28.5-22.8C207.7,353.5,201.3,345.7,188.5,344.7 M172.5,306.5c4.1,0,6.7,2.3,6.7,6.8c0,4.7-2.6,7-6.7,7
		c-4.3,0-6.8-2.3-6.8-7C165.7,308.8,168.2,306.5,172.5,306.5 M180.6,373.5h-12.1c-4.3,0-6.8-3.3-6.8-6.8c0-1.7,0.6-3.8,2.4-5.1
		l15.6,0.6c4.3,0.3,5.5,2.3,5.5,4.7C185.3,370.3,184.1,373.5,180.6,373.5"/>
	<polygon points="220.7,374.8 218.5,374.8 218.5,381.9 217.6,381.9 217.6,374.8 215.4,374.8 215.4,373.9 220.7,373.9 	"/>
	<polygon points="226.4,381 226.4,381.9 221.9,381.9 221.9,373.9 226.3,373.9 226.3,374.8 222.8,374.8 222.8,377.4 225.7,377.4 
		225.7,378.2 222.8,378.2 222.8,381 	"/>
	<path d="M230.2,382c-1.5,0-2.6-1-2.6-2.5v-3.3c0-1.5,1.1-2.5,2.6-2.5c1,0,1.6,0.3,2.2,0.8l-0.4,0.7c-0.5-0.4-1-0.6-1.8-0.6
		c-1,0-1.7,0.7-1.7,1.8v3c0,1.2,0.7,1.8,1.7,1.8c0.8,0,1.3-0.2,1.8-0.6l0.4,0.7C231.8,381.8,231.2,382,230.2,382"/>
	<polygon points="239.1,373.9 239.1,381.9 238.2,381.9 238.2,378.2 234.7,378.2 234.7,381.9 233.8,381.9 233.8,373.9 234.7,373.9 
		234.7,377.3 238.2,377.3 238.2,373.9 	"/>
	<polygon points="246.2,373.9 246.2,381.9 245.3,381.9 241.9,375.6 242,381.9 241.1,381.9 241.1,373.9 242,373.9 245.4,380.2 
		245.3,373.9 	"/>
	<path d="M247.9,379.5v-3.3c0-1.5,1.2-2.5,2.8-2.5s2.8,1,2.8,2.5v3.3c0,1.6-1.2,2.5-2.8,2.5S247.9,381.1,247.9,379.5 M252.6,379.4
		v-3c0-1.2-0.8-1.8-1.9-1.8c-1,0-1.9,0.6-1.9,1.8v3c0,1.2,0.8,1.8,1.9,1.8C251.7,381.2,252.6,380.6,252.6,379.4"/>
	<polygon points="259.7,381 259.7,381.9 255.2,381.9 255.2,373.9 256.1,373.9 256.1,381 	"/>
	<path d="M260.5,379.5v-3.3c0-1.5,1.2-2.5,2.8-2.5c1.5,0,2.8,1,2.8,2.5v3.3c0,1.6-1.2,2.5-2.8,2.5
		C261.7,382,260.5,381.1,260.5,379.5 M265.1,379.4v-3c0-1.2-0.8-1.8-1.9-1.8c-1,0-1.9,0.6-1.9,1.8v3c0,1.2,0.8,1.8,1.9,1.8
		C264.3,381.2,265.1,380.6,265.1,379.4"/>
	<path d="M272.6,377.7v4.3h-0.7l-0.2-0.8c-0.4,0.4-1.1,0.8-1.9,0.8c-1.4,0-2.3-1-2.3-2.5v-3.3c0-1.5,1.1-2.5,2.6-2.5
		c1,0,1.6,0.3,2.2,0.8l-0.4,0.7c-0.5-0.4-1-0.6-1.8-0.6c-1,0-1.7,0.7-1.7,1.8v3c0,1.2,0.6,1.8,1.5,1.8c0.6,0,1.3-0.3,1.7-0.9v-1.8
		h-1.6v-0.8H272.6z"/>
	<polygon points="279.1,373.9 276.7,379 276.7,381.9 275.8,381.9 275.8,379.1 273.3,373.9 274.3,373.9 276.2,378 278.1,373.9 	"/>
	<polygon points="283.9,373.4 279.5,383.5 278.7,383.1 283.1,373 	"/>
	<rect x="285.1" y="373.9" width="0.9" height="8"/>
	<polygon points="293.1,373.9 293.1,381.9 292.2,381.9 288.8,375.6 288.9,381.9 288,381.9 288,373.9 288.9,373.9 292.3,380.2 
		292.2,373.9 	"/>
	<polygon points="300.3,373.9 300.3,381.9 299.4,381.9 296,375.6 296,381.9 295.1,381.9 295.1,373.9 296,373.9 299.4,380.2 
		299.3,373.9 	"/>
	<path d="M302,379.5v-3.3c0-1.5,1.2-2.5,2.8-2.5c1.6,0,2.8,1,2.8,2.5v3.3c0,1.6-1.2,2.5-2.8,2.5C303.2,382,302,381.1,302,379.5
		 M306.6,379.4v-3c0-1.2-0.8-1.8-1.9-1.8c-1,0-1.9,0.6-1.9,1.8v3c0,1.2,0.8,1.8,1.9,1.8C305.8,381.2,306.6,380.6,306.6,379.4"/>
	<polygon points="314.5,373.9 311.9,381.9 310.9,381.9 308.3,373.9 309.3,373.9 311.4,380.8 313.5,373.9 	"/>
	<path d="M320.7,381.9h-1l-0.7-2.4c-0.9,0.2-1.8,0.2-2.8,0l-0.7,2.4h-1l2.6-8h1L320.7,381.9z M318.7,378.7l-1.2-3.7l-1.1,3.7
		C317.2,378.9,317.9,378.9,318.7,378.7"/>
	<polygon points="325.7,374.8 323.6,374.8 323.6,381.9 322.6,381.9 322.6,374.8 320.4,374.8 320.4,373.9 325.7,373.9 	"/>
	<rect x="326.9" y="373.9" width="0.9" height="8"/>
	<path d="M329.5,379.5v-3.3c0-1.5,1.2-2.5,2.8-2.5c1.6,0,2.8,1,2.8,2.5v3.3c0,1.6-1.2,2.5-2.8,2.5
		C330.8,382,329.5,381.1,329.5,379.5 M334.2,379.4v-3c0-1.2-0.8-1.8-1.9-1.8c-1,0-1.9,0.6-1.9,1.8v3c0,1.2,0.8,1.8,1.9,1.8
		C333.4,381.2,334.2,380.6,334.2,379.4"/>
	<polygon points="342,373.9 342,381.9 341.1,381.9 337.7,375.6 337.7,381.9 336.8,381.9 336.8,373.9 337.7,373.9 341.1,380.2 
		341,373.9 	"/>
	<polygon points="351.6,373.9 351.6,381.9 350.7,381.9 347.3,375.6 347.4,381.9 346.5,381.9 346.5,373.9 347.4,373.9 350.8,380.2 
		350.7,373.9 	"/>
	<polygon points="358.1,381 358.1,381.9 353.6,381.9 353.6,373.9 358,373.9 358,374.8 354.5,374.8 354.5,377.4 357.4,377.4 
		357.4,378.2 354.5,378.2 354.5,381 	"/>
	<polygon points="358.8,373.9 359.8,373.9 361.5,380.8 363.2,373.9 364.2,373.9 365.8,380.8 367.6,373.9 368.6,373.9 366.3,381.9 
		365.3,381.9 363.7,375.1 362.1,381.9 361,381.9 	"/>
	<path d="M371.5,381.2c1.1,0,1.7-0.6,1.7-1.4c0-1-0.6-1.3-1.6-1.5c-1.3-0.3-2.2-0.8-2.2-2.3c0-1.3,0.9-2.2,2.4-2.1
		c0.9,0,1.6,0.3,2.2,0.7l-0.4,0.7c-0.5-0.3-1.1-0.5-1.8-0.5c-1,0-1.4,0.5-1.4,1.3c0,1,0.6,1.3,1.6,1.5c1.1,0.2,2.3,0.7,2.3,2.3
		c0,1.4-0.9,2.3-2.6,2.3c-1,0-1.9-0.3-2.4-0.7l0.4-0.8C370.1,380.9,370.8,381.2,371.5,381.2"/>
	<polygon points="380.1,381 380.1,381.9 375.6,381.9 375.6,373.9 376.6,373.9 376.6,381 	"/>
	<polygon points="385.9,381 385.9,381.9 381.4,381.9 381.4,373.9 385.8,373.9 385.8,374.8 382.3,374.8 382.3,377.4 385.2,377.4 
		385.2,378.2 382.3,378.2 382.3,381 	"/>
	<polygon points="391.9,374.8 389.7,374.8 389.7,381.9 388.8,381.9 388.8,374.8 386.6,374.8 386.6,373.9 391.9,373.9 	"/>
	<polygon points="397.7,374.8 395.5,374.8 395.5,381.9 394.6,381.9 394.6,374.8 392.4,374.8 392.4,373.9 397.7,373.9 	"/>
	<polygon points="403.4,381 403.4,381.9 398.9,381.9 398.9,373.9 403.3,373.9 403.3,374.8 399.8,374.8 399.8,377.4 402.7,377.4 
		402.7,378.2 399.8,378.2 399.8,381 	"/>
	<path d="M410.2,381.2v0.8c-0.2,0-0.4,0.1-0.6,0.1c-0.6,0-0.9-0.2-1.3-1.1l-1.1-2.3c-0.4,0-0.9-0.1-1.3-0.2v3.4h-0.9v-8h2.7
		c1.5,0,2.4,0.9,2.4,2.2v0.4c0,1.2-0.8,1.9-1.9,2.1l1.1,2.1c0.2,0.4,0.4,0.6,0.7,0.6C409.9,381.2,410.1,381.2,410.2,381.2
		 M405.8,377.6c0.5,0.1,1,0.2,1.5,0.2c1.2,0,1.7-0.6,1.7-1.5v-0.1c0-0.9-0.5-1.5-1.5-1.5h-1.8V377.6z"/>
	<path d="M413.9,379.5v-3.3c0-1.5,1.2-2.5,2.8-2.5c1.6,0,2.8,1,2.8,2.5v3.3c0,1.6-1.2,2.5-2.8,2.5
		C415.1,382,413.9,381.1,413.9,379.5 M418.5,379.4v-3c0-1.2-0.8-1.8-1.9-1.8c-1,0-1.9,0.6-1.9,1.8v3c0,1.2,0.8,1.8,1.9,1.8
		C417.7,381.2,418.5,380.6,418.5,379.4"/>
	<polygon points="422.1,374.8 422.1,377.7 425,377.7 425,378.5 422.1,378.5 422.1,381.9 421.1,381.9 421.1,373.9 425.6,373.9 
		425.6,374.8 	"/>
	<polygon points="433.4,374.8 431.3,374.8 431.3,381.9 430.3,381.9 430.3,374.8 428.2,374.8 428.2,373.9 433.4,373.9 	"/>
	<polygon points="440,373.9 440,381.9 439.1,381.9 439.1,378.2 435.6,378.2 435.6,381.9 434.6,381.9 434.6,373.9 435.6,373.9 
		435.6,377.3 439.1,377.3 439.1,373.9 	"/>
	<polygon points="446.5,381 446.5,381.9 441.9,381.9 441.9,373.9 446.4,373.9 446.4,374.8 442.9,374.8 442.9,377.4 445.8,377.4 
		445.8,378.2 442.9,378.2 442.9,381 	"/>
	<path d="M455.7,381.9h-1l-0.7-2.4c-0.9,0.2-1.8,0.2-2.8,0l-0.7,2.4h-1l2.6-8h1L455.7,381.9z M453.7,378.7l-1.2-3.7l-1.1,3.7
		C452.2,378.9,452.9,378.9,453.7,378.7"/>
	<polygon points="463.2,373.9 463.2,381.9 462.3,381.9 462.4,375.9 460.3,380.2 459.7,380.2 457.7,376 457.7,381.9 456.8,381.9 
		456.8,373.9 457.6,373.9 460,379.1 462.5,373.9 	"/>
	<polygon points="469.7,381 469.7,381.9 465.2,381.9 465.2,373.9 469.6,373.9 469.6,374.8 466.1,374.8 466.1,377.4 469,377.4 
		469,378.2 466.1,378.2 466.1,381 	"/>
	<path d="M476.5,381.2v0.8c-0.2,0-0.4,0.1-0.6,0.1c-0.6,0-0.9-0.2-1.3-1.1l-1.1-2.3c-0.4,0-0.9-0.1-1.3-0.2v3.4h-0.9v-8h2.7
		c1.5,0,2.4,0.9,2.4,2.2v0.4c0,1.2-0.8,1.9-1.9,2.1l1.1,2.1c0.2,0.4,0.4,0.6,0.7,0.6C476.2,381.2,476.4,381.2,476.5,381.2
		 M472.1,377.6c0.5,0.1,1,0.2,1.5,0.2c1.2,0,1.7-0.6,1.7-1.5v-0.1c0-0.9-0.5-1.5-1.5-1.5h-1.8V377.6z"/>
	<rect x="477.9" y="373.9" width="0.9" height="8"/>
	<path d="M483.2,382c-1.5,0-2.6-1-2.6-2.5v-3.3c0-1.5,1.1-2.5,2.6-2.5c1,0,1.6,0.3,2.2,0.8l-0.4,0.7c-0.5-0.4-1-0.6-1.8-0.6
		c-1,0-1.7,0.7-1.7,1.8v3c0,1.2,0.7,1.8,1.7,1.8c0.8,0,1.3-0.2,1.8-0.6l0.4,0.7C484.8,381.8,484.2,382,483.2,382"/>
	<path d="M492.2,381.9h-1l-0.7-2.4c-0.9,0.2-1.8,0.2-2.8,0l-0.7,2.4h-1l2.6-8h1L492.2,381.9z M490.2,378.7L489,375l-1.1,3.7
		C488.6,378.9,489.4,378.9,490.2,378.7"/>
	<polygon points="498.4,373.9 498.4,381.9 497.5,381.9 494.1,375.6 494.2,381.9 493.3,381.9 493.3,373.9 494.2,373.9 497.6,380.2 
		497.5,373.9 	"/>
	<polygon points="507.5,381 507.5,381.9 502.9,381.9 502.9,373.9 503.9,373.9 503.9,381 	"/>
	<path d="M514.1,381.9h-1l-0.7-2.4c-0.9,0.2-1.8,0.2-2.8,0l-0.7,2.4h-1l2.6-8h1L514.1,381.9z M512.1,378.7L511,375l-1.1,3.7
		C510.6,378.9,511.4,378.9,512.1,378.7"/>
	<polygon points="520.4,373.9 520.4,381.9 519.5,381.9 516.1,375.6 516.1,381.9 515.2,381.9 515.2,373.9 516.1,373.9 519.5,380.2 
		519.5,373.9 	"/>
	<path d="M527.5,376.4v3c0,1.5-0.9,2.5-2.4,2.5h-2.7v-8h2.7C526.6,373.9,527.5,374.9,527.5,376.4 M526.6,376.6
		c0-1.2-0.5-1.8-1.5-1.8h-1.8v6.3h1.8c1,0,1.5-0.6,1.5-1.8V376.6z"/>
	<polygon points="536,374.8 533.8,374.8 533.8,381.9 532.9,381.9 532.9,374.8 530.7,374.8 530.7,373.9 536,373.9 	"/>
	<rect x="537.2" y="373.9" width="0.9" height="8"/>
	<polygon points="544.6,374.8 542.4,374.8 542.4,381.9 541.5,381.9 541.5,374.8 539.3,374.8 539.3,373.9 544.6,373.9 	"/>
	<polygon points="550.3,381 550.3,381.9 545.8,381.9 545.8,373.9 546.7,373.9 546.7,381 	"/>
	<polygon points="556.1,381 556.1,381.9 551.6,381.9 551.6,373.9 556,373.9 556,374.8 552.5,374.8 552.5,377.4 555.4,377.4 
		555.4,378.2 552.5,378.2 552.5,381 	"/>
	<path d="M565.3,381.9h-1l-0.7-2.4c-0.9,0.2-1.8,0.2-2.8,0l-0.7,2.4h-1l2.6-8h1L565.3,381.9z M563.3,378.7l-1.2-3.7l-1.1,3.7
		C561.8,378.9,562.5,378.9,563.3,378.7"/>
	<path d="M568.2,381.2c1.1,0,1.7-0.6,1.7-1.4c0-1-0.6-1.3-1.6-1.5c-1.3-0.3-2.2-0.8-2.2-2.3c0-1.3,0.9-2.2,2.4-2.1
		c0.9,0,1.6,0.3,2.2,0.7l-0.4,0.7c-0.5-0.3-1.1-0.5-1.8-0.5c-1,0-1.4,0.5-1.4,1.3c0,1,0.6,1.3,1.5,1.5c1.1,0.2,2.3,0.7,2.3,2.3
		c0,1.4-0.9,2.3-2.6,2.3c-1,0-1.9-0.3-2.4-0.7l0.4-0.8C566.8,380.9,567.5,381.2,568.2,381.2"/>
	<path d="M574.1,381.2c1.1,0,1.7-0.6,1.7-1.4c0-1-0.6-1.3-1.6-1.5c-1.3-0.3-2.2-0.8-2.2-2.3c0-1.3,0.9-2.2,2.4-2.1
		c0.9,0,1.6,0.3,2.2,0.7l-0.4,0.7c-0.5-0.3-1.1-0.5-1.8-0.5c-1,0-1.4,0.5-1.4,1.3c0,1,0.6,1.3,1.5,1.5c1.1,0.2,2.3,0.7,2.3,2.3
		c0,1.4-0.9,2.3-2.6,2.3c-1,0-1.9-0.3-2.4-0.7l0.4-0.8C572.7,380.9,573.4,381.2,574.1,381.2"/>
	<path d="M578,379.5v-3.3c0-1.5,1.2-2.5,2.8-2.5s2.8,1,2.8,2.5v3.3c0,1.6-1.2,2.5-2.8,2.5S578,381.1,578,379.5 M582.6,379.4v-3
		c0-1.2-0.8-1.8-1.9-1.8c-1,0-1.9,0.6-1.9,1.8v3c0,1.2,0.8,1.8,1.9,1.8C581.8,381.2,582.6,380.6,582.6,379.4"/>
	<path d="M587.6,382c-1.5,0-2.6-1-2.6-2.5v-3.3c0-1.5,1.1-2.5,2.6-2.5c1,0,1.6,0.3,2.2,0.8l-0.4,0.7c-0.5-0.4-1-0.6-1.8-0.6
		c-1,0-1.7,0.7-1.7,1.8v3c0,1.2,0.7,1.8,1.7,1.8c0.8,0,1.3-0.2,1.8-0.6l0.4,0.7C589.3,381.8,588.6,382,587.6,382"/>
	<rect x="591.2" y="373.9" width="0.9" height="8"/>
	<path d="M599.5,381.9h-1l-0.7-2.4c-0.9,0.2-1.8,0.2-2.8,0l-0.7,2.4h-1l2.6-8h1L599.5,381.9z M597.5,378.7l-1.2-3.7l-1.1,3.7
		C596,378.9,596.7,378.9,597.5,378.7"/>
	<polygon points="604.5,374.8 602.4,374.8 602.4,381.9 601.4,381.9 601.4,374.8 599.3,374.8 599.3,373.9 604.5,373.9 	"/>
	<rect x="605.7" y="373.9" width="0.9" height="8"/>
	<path d="M608.4,379.5v-3.3c0-1.5,1.2-2.5,2.8-2.5c1.6,0,2.8,1,2.8,2.5v3.3c0,1.6-1.2,2.5-2.8,2.5
		C609.6,382,608.4,381.1,608.4,379.5 M613,379.4v-3c0-1.2-0.8-1.8-1.9-1.8c-1,0-1.9,0.6-1.9,1.8v3c0,1.2,0.8,1.8,1.9,1.8
		C612.2,381.2,613,380.6,613,379.4"/>
	<polygon points="620.8,373.9 620.8,381.9 619.9,381.9 616.5,375.6 616.5,381.9 615.6,381.9 615.6,373.9 616.5,373.9 619.9,380.2 
		619.9,373.9 	"/>
</g>
</svg>
